<svg width="19" height="19" viewBox="0 0 19 19" fill="none" xmlns="http://www.w3.org/2000/svg">
<path d="M10.602 18.7057C10.5409 18.7231 10.4785 18.7309 10.4148 18.7289C9.9496 18.7103 9.62275 18.1218 9.68672 17.4147C9.77043 16.6045 9.85963 15.7927 9.95423 14.9794C9.96261 14.9019 9.97446 14.825 9.98987 14.7486C10.0053 14.6721 10.0242 14.5966 10.0464 14.5219C10.0687 14.4472 10.0943 14.3737 10.1233 14.3013C10.1523 14.229 10.1846 14.1581 10.22 14.0887C10.2555 14.0193 10.294 13.9516 10.3356 13.8858C10.3772 13.8198 10.4217 13.7559 10.4692 13.6941C10.5167 13.6322 10.5668 13.5727 10.6197 13.5155C10.6726 13.4581 10.728 13.4034 10.7858 13.3512L10.9347 13.2221C11.3395 12.8623 11.7466 12.4813 12.156 12.0789C12.6514 11.5936 13.1814 11.1089 13.7458 10.6252C14.0703 10.3472 14.56 10.2891 14.8298 10.4925C15.0938 10.6926 15.0253 11.0834 14.7135 11.3659C14.1226 11.8916 13.5702 12.4192 13.0562 12.9488C13.2352 12.8453 13.4179 12.743 13.6027 12.6394C14.6739 12.0381 15.6486 11.0461 16.0662 9.98553L16.4431 9.01442C16.5977 8.61079 17.1537 8.2852 17.6899 8.28635C18.226 8.28751 18.5121 8.60964 18.3306 9.01211C18.098 9.53383 17.8655 10.056 17.6328 10.5786C17.0292 11.9312 15.8755 13.2535 14.6588 14.2886C14.4084 14.5002 14.1661 14.7123 13.9319 14.9248C13.5847 15.2372 13.2724 15.5813 12.9952 15.9571C12.7179 16.3328 12.4812 16.7327 12.285 17.1566C11.9222 17.9183 11.3546 18.501 10.8102 18.6498L10.602 18.7057ZM7.78043 18.7057L7.57342 18.651C7.03031 18.5021 6.46157 17.9195 6.09985 17.1577C5.90324 16.734 5.66627 16.3342 5.38874 15.9584C5.11131 15.5826 4.79891 15.2384 4.45173 14.9259C4.21909 14.7127 3.97682 14.5006 3.72482 14.2898C2.50826 13.2582 1.35451 11.9324 0.750808 10.5833C0.518266 10.0614 0.285627 9.53932 0.0529893 9.01673C-0.124933 8.60617 0.158857 8.28866 0.699656 8.28751C1.24046 8.28635 1.79176 8.61195 1.94646 9.01557L2.32331 9.98668C2.7409 11.0473 3.71904 12.0394 4.78667 12.6406C4.97163 12.7441 5.15427 12.8464 5.33335 12.95C4.81923 12.4212 4.26678 11.8935 3.67598 11.3671C3.35847 11.0846 3.28979 10.6937 3.55383 10.4938C3.82134 10.2902 4.3133 10.3483 4.63784 10.6263C5.20311 11.1101 5.73302 11.5947 6.22778 12.08C6.63641 12.4778 7.04225 12.8585 7.44549 13.2221L7.59432 13.3558C7.65222 13.4081 7.70761 13.4629 7.76049 13.5201C7.81338 13.5774 7.86356 13.6369 7.91096 13.6988C7.95845 13.7606 8.00296 13.8245 8.04457 13.8904C8.08618 13.9563 8.12472 14.0239 8.16017 14.0933C8.19562 14.1627 8.22789 14.2336 8.25688 14.306C8.28588 14.3784 8.3115 14.4519 8.33375 14.5265C8.3561 14.6012 8.37489 14.6768 8.3903 14.7532C8.40571 14.8296 8.41756 14.9066 8.42594 14.984C8.52054 15.7966 8.60974 16.6083 8.69345 17.4194C8.75742 18.1265 8.42825 18.715 7.96539 18.7336C7.90229 18.7338 7.84064 18.7244 7.78043 18.7057ZM7.47343 4.97528H10.7824C11.5965 4.97528 12.3176 5.32419 12.6759 5.83358L9.19013 7.3269L5.70085 5.82896C6.01257 5.32188 6.66743 4.97528 7.47343 4.97528ZM9.19938 4.54959C9.1622 4.5495 9.12501 4.54844 9.08783 4.54651C9.05074 4.54459 9.01366 4.5417 8.97666 4.53794C8.93958 4.53409 8.90268 4.52946 8.86598 4.52387C8.82918 4.51829 8.79258 4.51183 8.75607 4.50442C8.71956 4.497 8.68334 4.48871 8.64731 4.47956C8.61119 4.47041 8.57545 4.46039 8.53981 4.44951C8.50426 4.43853 8.469 4.42677 8.43403 4.41415C8.39907 4.40144 8.36439 4.38795 8.33009 4.3736C8.2957 4.35925 8.2618 4.34412 8.22818 4.32803C8.19465 4.31204 8.16142 4.29528 8.12867 4.27756C8.09591 4.25993 8.06364 4.24153 8.03176 4.22226C7.99997 4.20309 7.96857 4.18306 7.93774 4.16235C7.90682 4.14154 7.87647 4.12006 7.84671 4.0978C7.81684 4.07555 7.78766 4.05253 7.75895 4.02883C7.73024 4.00523 7.70221 3.98076 7.67466 3.95572C7.64721 3.93067 7.62033 3.90495 7.59413 3.87856C7.56783 3.85216 7.5423 3.82519 7.51745 3.79754C7.4925 3.7699 7.46832 3.74167 7.44482 3.71287C7.42122 3.68406 7.39848 3.65459 7.37642 3.62473C7.35427 3.59477 7.33298 3.56433 7.31236 3.53331C7.29184 3.50229 7.272 3.47079 7.25293 3.4389C7.23395 3.40692 7.21565 3.37446 7.19821 3.34161C7.18077 3.30876 7.16421 3.27553 7.14831 3.24181C7.13251 3.20819 7.11758 3.17409 7.10342 3.1397C7.08926 3.10531 7.07597 3.07063 7.06354 3.03557C7.05111 3.0005 7.03955 2.96515 7.02886 2.92951C7.01807 2.89387 7.00825 2.85803 6.99929 2.82191C6.99043 2.78578 6.98233 2.74947 6.9752 2.71296C6.96798 2.67645 6.96172 2.63984 6.95632 2.60304C6.95103 2.56615 6.9465 2.52925 6.94303 2.49226C6.93947 2.45518 6.93677 2.41809 6.93503 2.38091C6.9333 2.34382 6.93253 2.30663 6.93253 2.26945C6.93263 2.23217 6.93369 2.19499 6.93561 2.1579C6.93754 2.12072 6.94033 2.08363 6.94409 2.04664C6.94775 2.00965 6.95237 1.97275 6.95796 1.93595C6.96345 1.89916 6.96991 1.86255 6.97732 1.82604C6.98465 1.78953 6.99283 1.75331 7.00199 1.71728C7.01104 1.68116 7.02106 1.64533 7.03194 1.60978C7.04283 1.57423 7.05458 1.53888 7.0672 1.50391C7.07982 1.46894 7.09321 1.43427 7.10756 1.39988C7.12192 1.36558 7.13704 1.33158 7.15303 1.29805C7.16893 1.26443 7.18578 1.2312 7.20332 1.19845C7.22094 1.1657 7.23934 1.13333 7.25851 1.10144C7.27778 1.06965 7.29772 1.03825 7.31843 1.00733C7.33914 0.976406 7.36062 0.946062 7.38288 0.916296C7.40503 0.886434 7.42796 0.857149 7.45166 0.828443C7.47535 0.799736 7.49963 0.771608 7.52467 0.744057C7.54972 0.716603 7.57544 0.68963 7.60174 0.663428C7.62813 0.63713 7.65511 0.611602 7.68275 0.586653C7.7103 0.561703 7.73853 0.537428 7.76733 0.513923C7.79613 0.490322 7.82551 0.467492 7.85538 0.445432C7.88534 0.423276 7.91578 0.401891 7.9467 0.381276C7.97772 0.360662 8.00912 0.340817 8.0411 0.321744C8.07299 0.302671 8.10545 0.284464 8.1383 0.266932C8.17105 0.249496 8.20438 0.232831 8.238 0.216936C8.27162 0.201042 8.30572 0.186014 8.34011 0.171854C8.3745 0.157693 8.40918 0.144399 8.44425 0.131876C8.47931 0.119354 8.51457 0.107794 8.55021 0.0970048C8.58585 0.0863122 8.62169 0.0763901 8.65781 0.0674314C8.69393 0.0584726 8.73015 0.0502845 8.76666 0.0431561C8.80317 0.0359313 8.83988 0.0295735 8.87667 0.024179C8.91347 0.0187845 8.95037 0.0142569 8.98745 0.0106927C9.02444 0.00703212 9.06153 0.00443119 9.09871 0.00260092C9.1359 0.000866962 9.17308 0 9.21027 0C9.24745 9.63244e-05 9.28463 0.00096333 9.32182 0.00288992C9.3589 0.0047202 9.39599 0.00751377 9.43308 0.0111743C9.47007 0.0149312 9.50696 0.0194588 9.54376 0.0249496C9.58056 0.0304404 9.61717 0.0368946 9.65368 0.0442157C9.69018 0.0514405 9.7264 0.0596286 9.76253 0.06878C9.79856 0.0778351 9.83439 0.0877571 9.87003 0.0986425C9.90558 0.109431 9.94093 0.121087 9.9759 0.133707C10.011 0.14623 10.0456 0.159716 10.08 0.173973C10.1143 0.18823 10.1483 0.203354 10.182 0.219248C10.2156 0.235143 10.2488 0.251904 10.2816 0.269533C10.3144 0.287065 10.3468 0.305368 10.3787 0.324538C10.4105 0.343707 10.4419 0.363648 10.4729 0.384359C10.5038 0.404974 10.5341 0.426455 10.564 0.448611C10.5939 0.470767 10.6232 0.493694 10.6519 0.517295C10.6807 0.540992 10.7088 0.565268 10.7363 0.590217C10.7639 0.615263 10.7909 0.640887 10.8172 0.667282C10.8435 0.69358 10.8691 0.720552 10.894 0.748103C10.919 0.775653 10.9433 0.803878 10.9669 0.832585C10.9905 0.861388 11.0133 0.890672 11.0354 0.920631C11.0576 0.950493 11.079 0.980934 11.0997 1.01186C11.1203 1.04278 11.1402 1.07418 11.1593 1.10616C11.1784 1.13805 11.1968 1.17042 11.2142 1.20326C11.2318 1.23602 11.2485 1.26925 11.2644 1.30287C11.2803 1.33649 11.2953 1.37049 11.3096 1.40488C11.3239 1.43927 11.3371 1.47395 11.3498 1.50902C11.3623 1.54408 11.3739 1.57934 11.3847 1.61498C11.3955 1.65053 11.4053 1.68636 11.4144 1.72249C11.4235 1.75861 11.4316 1.79483 11.4389 1.83134C11.4461 1.86785 11.4525 1.90445 11.4579 1.94125C11.4633 1.97805 11.468 2.01495 11.4715 2.05203C11.4752 2.08902 11.478 2.12611 11.4798 2.16329C11.4815 2.20048 11.4825 2.23757 11.4825 2.27485C11.4824 2.31213 11.4815 2.34941 11.4795 2.38659C11.4776 2.42387 11.4748 2.46105 11.471 2.49814C11.4674 2.53523 11.4627 2.57222 11.4572 2.60911C11.4516 2.64601 11.4451 2.68271 11.4378 2.71931C11.4305 2.75582 11.4222 2.79224 11.4131 2.82836C11.404 2.86448 11.394 2.90042 11.3831 2.93606C11.3722 2.9718 11.3604 3.00715 11.3477 3.04221C11.3351 3.07728 11.3216 3.11205 11.3073 3.14654C11.2929 3.18093 11.2778 3.21503 11.2618 3.24865C11.2458 3.28237 11.229 3.3156 11.2113 3.34845C11.1937 3.3813 11.1752 3.41376 11.1559 3.44565C11.1368 3.47763 11.1167 3.50913 11.0959 3.54005C11.0752 3.57107 11.0536 3.60151 11.0314 3.63137C11.0091 3.66133 10.9861 3.69071 10.9624 3.71942C10.9387 3.74822 10.9144 3.77645 10.8892 3.804C10.8642 3.83164 10.8383 3.85852 10.812 3.88491C10.7856 3.91121 10.7585 3.93684 10.7308 3.96188C10.7031 3.98683 10.6749 4.01111 10.646 4.0348C10.6171 4.05841 10.5877 4.08124 10.5576 4.10339C10.5277 4.12555 10.4971 4.14703 10.4661 4.16764C10.4351 4.18835 10.4035 4.2082 10.3715 4.22737C10.3395 4.24644 10.307 4.26475 10.2741 4.28228C10.2412 4.29981 10.2079 4.31657 10.1741 4.33237C10.1403 4.34826 10.1062 4.36339 10.0717 4.37755C10.0373 4.39181 10.0025 4.4051 9.96733 4.41762C9.93217 4.43014 9.89681 4.4418 9.86107 4.45259C9.82534 4.46328 9.7894 4.4732 9.75318 4.48226C9.71706 4.49122 9.68065 4.49931 9.64404 4.50653C9.60744 4.51376 9.57073 4.52012 9.53384 4.52551C9.49695 4.53091 9.45986 4.53543 9.42277 4.539C9.38568 4.54256 9.3485 4.54526 9.31122 4.54709C9.27394 4.54882 9.23666 4.54969 9.19938 4.54959ZM9.19013 11.9161L5.29144 9.91684C5.27709 9.90885 5.26486 9.89835 5.25493 9.88515C5.24501 9.87195 5.23817 9.85731 5.23451 9.84132L4.51454 6.01382C4.50982 5.98916 4.51213 5.96508 4.52157 5.94176C4.52446 5.93463 4.52812 5.92789 4.53246 5.92153C4.53679 5.91518 4.5417 5.9093 4.54719 5.90391C4.55268 5.89851 4.55866 5.89369 4.56501 5.88946C4.57147 5.88531 4.57831 5.88175 4.58544 5.87886C4.59257 5.87597 4.59989 5.87385 4.6075 5.8725C4.61501 5.87106 4.62262 5.87038 4.63033 5.87048C4.63803 5.87058 4.64564 5.87144 4.65316 5.87308C4.66067 5.87472 4.66799 5.87703 4.67502 5.88011L9.19013 7.8153L13.7063 5.88011C13.7133 5.87703 13.7207 5.87472 13.7282 5.87308C13.7357 5.87144 13.7433 5.87058 13.751 5.87048C13.7587 5.87038 13.7663 5.87106 13.7738 5.8725C13.7814 5.87385 13.7888 5.87597 13.7959 5.87886C13.8031 5.88175 13.8099 5.88531 13.8163 5.88946C13.8228 5.89369 13.8287 5.89851 13.8341 5.90391C13.8396 5.9093 13.8445 5.91518 13.8489 5.92153C13.8532 5.92789 13.8569 5.93463 13.8599 5.94176C13.8701 5.96498 13.8724 5.98906 13.8668 6.01382L13.1445 9.84132C13.1408 9.85731 13.134 9.87195 13.1241 9.88515C13.1142 9.89835 13.102 9.90885 13.0876 9.91684L9.19013 11.9161Z" fill="#616161"/>
</svg>
